<svg width="390" height="851" viewBox="0 0 390 851" fill="none" xmlns="http://www.w3.org/2000/svg">
<g clip-path="url(#clip0_20_1048)">
<rect width="390" height="851" rx="16" fill="#FF7931"/>
<g opacity="0.1">
<path d="M39.9833 210.19H167.983V82.1897H39.9833V210.19Z" fill="white"/>
<path d="M177.519 774.093H305.519V646.093H177.519V774.093Z" fill="white"/>
<path d="M98.314 486.812H158.314V426.812H98.314V486.812Z" fill="white"/>
</g>
<rect width="393.256" height="3.99833" transform="translate(0 847.872)" fill="url(#paint0_linear_20_1048)"/>
<path d="M56.9076 480.147V484.146H55.6019V474.514H60.1342C61.2188 474.514 62.0551 474.758 62.6429 475.245C63.2354 475.728 63.5316 476.403 63.5316 477.269C63.5316 477.984 63.322 478.586 62.9027 479.073C62.488 479.561 61.9138 479.869 61.1801 479.996L63.9144 484.146H62.4105L59.9086 480.147H56.9076ZM62.2191 477.282C62.2191 476.722 62.0277 476.296 61.6449 476.004C61.2666 475.708 60.7198 475.56 60.0043 475.56H56.9076V479.114H60.059C60.7471 479.114 61.278 478.955 61.6517 478.636C62.03 478.312 62.2191 477.861 62.2191 477.282ZM73.657 483.079V484.146H66.0691V474.514H73.3767V475.58H67.3748V478.67H72.9666V479.723H67.3748V483.079H73.657ZM77.0969 481.329L75.9894 484.146H74.6359L78.5666 474.514H80.05L83.9191 484.146H82.5861L81.4855 481.329H77.0969ZM79.2912 475.498C79.2137 475.753 79.1203 476.038 79.0109 476.353C78.9061 476.663 78.8081 476.936 78.717 477.173L77.4933 480.311H81.0959L79.8586 477.132C79.7948 476.973 79.7105 476.747 79.6056 476.455C79.5008 476.164 79.396 475.845 79.2912 475.498ZM91.6177 483.079V484.146H85.4449V474.514H86.7506V483.079H91.6177ZM96.4795 479.88V480.974H93.0615V479.88H96.4795ZM102.373 475.58V484.146H101.075V475.58H97.766V474.514H105.682V475.58H102.373ZM108.958 474.514V484.146H107.652V474.514H108.958ZM112.917 477.72V484.146H111.755V474.514H113.471L116.034 481.193C116.125 481.461 116.212 481.751 116.294 482.061C116.381 482.366 116.438 482.587 116.465 482.724C116.492 482.601 116.538 482.432 116.602 482.218C116.666 481.999 116.729 481.79 116.793 481.589C116.857 481.389 116.903 481.256 116.93 481.193L119.445 474.514H121.12V484.146H119.945V477.72C119.945 477.364 119.949 477.016 119.958 476.674C119.972 476.332 119.988 475.997 120.006 475.669C119.892 476.075 119.785 476.439 119.685 476.763C119.589 477.082 119.496 477.355 119.404 477.583L116.916 484.146H116L113.478 477.583L112.869 475.669C112.878 476.011 112.888 476.353 112.897 476.695C112.91 477.036 112.917 477.378 112.917 477.72ZM131.355 483.079V484.146H123.767V474.514H131.075V475.58H125.073V478.67H130.665V479.723H125.073V483.079H131.355ZM139.007 480.242V484.146H137.702V474.514H144.544V475.58H139.007V479.162H144.38V480.242H139.007ZM155.681 479.285C155.681 480.315 155.485 481.204 155.094 481.951C154.706 482.699 154.155 483.275 153.439 483.681C152.724 484.082 151.876 484.282 150.896 484.282C149.912 484.282 149.062 484.082 148.346 483.681C147.636 483.28 147.086 482.706 146.699 481.958C146.316 481.211 146.125 480.32 146.125 479.285C146.125 478.255 146.314 477.376 146.692 476.647C147.075 475.913 147.622 475.35 148.333 474.958C149.048 474.566 149.907 474.37 150.91 474.37C151.894 474.37 152.742 474.564 153.453 474.951C154.168 475.339 154.718 475.899 155.1 476.633C155.488 477.362 155.681 478.246 155.681 479.285ZM154.348 479.285C154.348 478.087 154.048 477.146 153.446 476.462C152.849 475.779 152.004 475.437 150.91 475.437C149.807 475.437 148.955 475.774 148.353 476.448C147.752 477.123 147.451 478.069 147.451 479.285C147.451 480.087 147.588 480.785 147.861 481.377C148.135 481.965 148.529 482.421 149.044 482.744C149.559 483.063 150.176 483.223 150.896 483.223C152.008 483.223 152.86 482.881 153.453 482.197C154.05 481.509 154.348 480.539 154.348 479.285ZM166.928 479.285C166.928 480.315 166.732 481.204 166.34 481.951C165.953 482.699 165.401 483.275 164.686 483.681C163.97 484.082 163.123 484.282 162.143 484.282C161.158 484.282 160.308 484.082 159.593 483.681C158.882 483.28 158.333 482.706 157.945 481.958C157.563 481.211 157.371 480.32 157.371 479.285C157.371 478.255 157.56 477.376 157.939 476.647C158.321 475.913 158.868 475.35 159.579 474.958C160.295 474.566 161.154 474.37 162.156 474.37C163.141 474.37 163.988 474.564 164.699 474.951C165.415 475.339 165.964 475.899 166.347 476.633C166.734 477.362 166.928 478.246 166.928 479.285ZM165.595 479.285C165.595 478.087 165.294 477.146 164.693 476.462C164.096 475.779 163.25 475.437 162.156 475.437C161.054 475.437 160.201 475.774 159.6 476.448C158.998 477.123 158.697 478.069 158.697 479.285C158.697 480.087 158.834 480.785 159.108 481.377C159.381 481.965 159.775 482.421 160.29 482.744C160.805 483.063 161.423 483.223 162.143 483.223C163.255 483.223 164.107 482.881 164.699 482.197C165.296 481.509 165.595 480.539 165.595 479.285ZM172.877 475.58V484.146H171.578V475.58H168.269V474.514H176.185V475.58H172.877ZM185.463 481.432C185.463 482.289 185.151 482.956 184.526 483.435C183.902 483.909 183.034 484.146 181.922 484.146H178.012V474.514H181.512C182.642 474.514 183.49 474.71 184.055 475.102C184.62 475.489 184.902 476.072 184.902 476.852C184.902 477.421 184.743 477.9 184.424 478.287C184.105 478.675 183.654 478.934 183.07 479.067C183.836 479.158 184.426 479.415 184.841 479.839C185.256 480.258 185.463 480.789 185.463 481.432ZM183.59 477.009C183.59 476.489 183.412 476.118 183.057 475.895C182.701 475.671 182.186 475.56 181.512 475.56H179.317V478.609H181.512C182.209 478.609 182.728 478.479 183.07 478.219C183.417 477.955 183.59 477.551 183.59 477.009ZM184.144 481.329C184.144 480.195 183.346 479.627 181.751 479.627H179.317V483.1H181.853C182.651 483.1 183.232 482.952 183.597 482.655C183.961 482.359 184.144 481.917 184.144 481.329ZM189.039 481.329L187.932 484.146H186.578L190.509 474.514H191.993L195.862 484.146H194.529L193.428 481.329H189.039ZM191.234 475.498C191.156 475.753 191.063 476.038 190.953 476.353C190.849 476.663 190.751 476.936 190.66 477.173L189.436 480.311H193.038L191.801 477.132C191.737 476.973 191.653 476.747 191.548 476.455C191.443 476.164 191.339 475.845 191.234 475.498ZM203.56 483.079V484.146H197.387V474.514H198.693V483.079H203.56ZM211.703 483.079V484.146H205.53V474.514H206.836V483.079H211.703ZM224.947 481.487C224.947 482.375 224.599 483.063 223.901 483.551C223.209 484.039 222.231 484.282 220.969 484.282C218.622 484.282 217.261 483.467 216.888 481.835L218.152 481.582C218.298 482.161 218.608 482.587 219.082 482.861C219.556 483.129 220.201 483.264 221.017 483.264C221.86 483.264 222.509 483.12 222.965 482.833C223.425 482.542 223.655 482.115 223.655 481.555C223.655 481.24 223.582 480.985 223.436 480.789C223.295 480.593 223.095 480.432 222.835 480.304C222.575 480.176 222.265 480.069 221.905 479.983C221.545 479.896 221.146 479.803 220.709 479.702C220.203 479.588 219.779 479.477 219.437 479.367C219.1 479.258 218.822 479.144 218.603 479.026C218.385 478.903 218.198 478.773 218.043 478.636C217.815 478.426 217.64 478.183 217.517 477.905C217.398 477.627 217.339 477.308 217.339 476.947C217.339 476.123 217.653 475.487 218.282 475.04C218.916 474.594 219.82 474.37 220.996 474.37C222.09 474.37 222.926 474.539 223.505 474.876C224.084 475.209 224.489 475.779 224.722 476.585L223.436 476.811C223.295 476.3 223.026 475.931 222.63 475.703C222.233 475.471 221.684 475.355 220.982 475.355C220.212 475.355 219.624 475.482 219.219 475.738C218.813 475.993 218.61 476.373 218.61 476.879C218.61 477.175 218.688 477.421 218.843 477.617C219.002 477.809 219.23 477.971 219.526 478.103C219.804 478.235 220.395 478.401 221.297 478.602C221.666 478.688 222.031 478.78 222.391 478.875C222.751 478.966 223.09 479.083 223.409 479.224C223.596 479.301 223.774 479.397 223.942 479.511C224.116 479.62 224.266 479.748 224.394 479.894C224.567 480.085 224.701 480.311 224.797 480.571C224.897 480.83 224.947 481.136 224.947 481.487ZM231.409 483.209C232.758 483.209 233.772 482.542 234.451 481.206L235.517 481.739C235.12 482.569 234.562 483.2 233.842 483.633C233.127 484.066 232.295 484.282 231.347 484.282C230.372 484.282 229.533 484.08 228.831 483.674C228.13 483.268 227.59 482.692 227.211 481.945C226.838 481.193 226.651 480.306 226.651 479.285C226.651 478.26 226.838 477.38 227.211 476.647C227.585 475.913 228.123 475.35 228.825 474.958C229.526 474.566 230.365 474.37 231.34 474.37C232.366 474.37 233.222 474.571 233.911 474.972C234.599 475.373 235.105 475.968 235.428 476.756L234.191 477.166C233.967 476.606 233.607 476.177 233.111 475.881C232.619 475.585 232.033 475.437 231.354 475.437C230.287 475.437 229.458 475.781 228.866 476.469C228.273 477.153 227.977 478.091 227.977 479.285C227.977 480.069 228.116 480.757 228.394 481.35C228.676 481.938 229.073 482.396 229.583 482.724C230.098 483.047 230.707 483.209 231.409 483.209ZM246.627 479.285C246.627 480.315 246.431 481.204 246.039 481.951C245.651 482.699 245.1 483.275 244.385 483.681C243.669 484.082 242.821 484.282 241.842 484.282C240.857 484.282 240.007 484.082 239.292 483.681C238.581 483.28 238.032 482.706 237.644 481.958C237.262 481.211 237.07 480.32 237.07 479.285C237.07 478.255 237.259 477.376 237.637 476.647C238.02 475.913 238.567 475.35 239.278 474.958C239.994 474.566 240.853 474.37 241.855 474.37C242.84 474.37 243.687 474.564 244.398 474.951C245.114 475.339 245.663 475.899 246.046 476.633C246.433 477.362 246.627 478.246 246.627 479.285ZM245.294 479.285C245.294 478.087 244.993 477.146 244.391 476.462C243.794 475.779 242.949 475.437 241.855 475.437C240.752 475.437 239.9 475.774 239.299 476.448C238.697 477.123 238.396 478.069 238.396 479.285C238.396 480.087 238.533 480.785 238.806 481.377C239.08 481.965 239.474 482.421 239.989 482.744C240.504 483.063 241.122 483.223 241.842 483.223C242.954 483.223 243.806 482.881 244.398 482.197C244.995 481.509 245.294 480.539 245.294 479.285ZM250.108 480.147V484.146H248.802V474.514H253.334C254.419 474.514 255.255 474.758 255.843 475.245C256.435 475.728 256.732 476.403 256.732 477.269C256.732 477.984 256.522 478.586 256.103 479.073C255.688 479.561 255.114 479.869 254.38 479.996L257.114 484.146H255.611L253.109 480.147H250.108ZM255.419 477.282C255.419 476.722 255.228 476.296 254.845 476.004C254.467 475.708 253.92 475.56 253.204 475.56H250.108V479.114H253.259C253.947 479.114 254.478 478.955 254.852 478.636C255.23 478.312 255.419 477.861 255.419 477.282ZM266.857 483.079V484.146H259.269V474.514H266.577V475.58H260.575V478.67H266.167V479.723H260.575V483.079H266.857ZM276.504 481.487C276.504 482.375 276.155 483.063 275.458 483.551C274.765 484.039 273.788 484.282 272.525 484.282C270.178 484.282 268.818 483.467 268.444 481.835L269.709 481.582C269.855 482.161 270.165 482.587 270.639 482.861C271.113 483.129 271.757 483.264 272.573 483.264C273.416 483.264 274.066 483.12 274.521 482.833C274.982 482.542 275.212 482.115 275.212 481.555C275.212 481.24 275.139 480.985 274.993 480.789C274.852 480.593 274.651 480.432 274.392 480.304C274.132 480.176 273.822 480.069 273.462 479.983C273.102 479.896 272.703 479.803 272.266 479.702C271.76 479.588 271.336 479.477 270.994 479.367C270.657 479.258 270.379 479.144 270.16 479.026C269.941 478.903 269.755 478.773 269.6 478.636C269.372 478.426 269.196 478.183 269.073 477.905C268.955 477.627 268.895 477.308 268.895 476.947C268.895 476.123 269.21 475.487 269.839 475.04C270.472 474.594 271.377 474.37 272.553 474.37C273.646 474.37 274.483 474.539 275.061 474.876C275.64 475.209 276.046 475.779 276.278 476.585L274.993 476.811C274.852 476.3 274.583 475.931 274.186 475.703C273.79 475.471 273.241 475.355 272.539 475.355C271.769 475.355 271.181 475.482 270.775 475.738C270.37 475.993 270.167 476.373 270.167 476.879C270.167 477.175 270.244 477.421 270.399 477.617C270.559 477.809 270.787 477.971 271.083 478.103C271.361 478.235 271.951 478.401 272.853 478.602C273.223 478.688 273.587 478.78 273.947 478.875C274.307 478.966 274.647 479.083 274.966 479.224C275.153 479.301 275.33 479.397 275.499 479.511C275.672 479.62 275.823 479.748 275.95 479.894C276.123 480.085 276.258 480.311 276.353 480.571C276.454 480.83 276.504 481.136 276.504 481.487ZM282.235 481.61C282.235 480.976 282.429 480.416 282.816 479.928C283.208 479.44 283.796 479.023 284.58 478.677C284.429 478.394 284.3 478.059 284.19 477.672C284.081 477.285 284.026 476.932 284.026 476.613C284.026 475.929 284.234 475.4 284.648 475.027C285.067 474.648 285.66 474.459 286.426 474.459C287.114 474.459 287.667 474.632 288.087 474.979C288.511 475.325 288.722 475.799 288.722 476.401C288.722 476.72 288.65 477.018 288.504 477.296C288.362 477.57 288.13 477.834 287.806 478.089C287.583 478.258 287.317 478.424 287.007 478.588C286.701 478.752 286.341 478.916 285.927 479.08C286.423 480.005 287.091 480.944 287.929 481.897C288.444 481.136 288.834 480.201 289.098 479.094L290.09 479.388C289.807 480.514 289.324 481.582 288.64 482.594C289.078 483.041 289.552 483.264 290.062 483.264C290.39 483.264 290.657 483.227 290.862 483.155V484.077C290.616 484.178 290.295 484.228 289.898 484.228C289.497 484.228 289.126 484.157 288.784 484.016C288.447 483.87 288.139 483.651 287.861 483.36C287.155 483.975 286.307 484.282 285.318 484.282C284.338 484.282 283.58 484.048 283.042 483.578C282.504 483.104 282.235 482.448 282.235 481.61ZM287.683 476.401C287.683 476.072 287.569 475.806 287.342 475.601C287.114 475.391 286.804 475.286 286.412 475.286C285.974 475.286 285.642 475.405 285.414 475.642C285.186 475.874 285.072 476.198 285.072 476.613C285.072 477.123 285.22 477.679 285.516 478.28C286.113 478.039 286.553 477.829 286.836 477.652C287.118 477.474 287.33 477.282 287.471 477.077C287.613 476.872 287.683 476.647 287.683 476.401ZM287.178 482.662C286.726 482.129 286.318 481.603 285.954 481.083C285.594 480.564 285.275 480.049 284.997 479.538C283.921 479.999 283.384 480.684 283.384 481.596C283.384 482.147 283.559 482.585 283.91 482.908C284.265 483.227 284.748 483.387 285.359 483.387C285.683 483.387 286.006 483.325 286.33 483.202C286.653 483.075 286.936 482.895 287.178 482.662ZM297.988 477.747V484.146H296.826V474.514H298.343L303.552 482.772C303.498 481.874 303.47 481.227 303.47 480.83V474.514H304.646V484.146H303.074L297.92 475.943C297.929 476.243 297.942 476.544 297.961 476.845C297.979 477.146 297.988 477.447 297.988 477.747ZM314.881 483.079V484.146H307.293V474.514H314.601V475.58H308.599V478.67H314.19V479.723H308.599V483.079H314.881ZM321.964 478.062L320.289 484.146H318.731L315.894 474.514H317.254L318.984 480.632C319.089 481.015 319.187 481.405 319.278 481.801C319.373 482.193 319.465 482.592 319.551 482.997C319.588 482.829 319.635 482.608 319.695 482.334C319.759 482.056 319.825 481.774 319.893 481.487C319.961 481.199 320.023 480.958 320.078 480.762L321.828 474.514H323.078L324.753 480.509C324.881 480.997 324.995 481.45 325.095 481.869C325.195 482.284 325.282 482.66 325.355 482.997C325.423 482.728 325.494 482.439 325.567 482.129C325.644 481.815 325.715 481.53 325.779 481.275C325.847 481.015 325.895 480.83 325.922 480.721L327.638 474.514H328.998L326.161 484.146H324.603L322.935 478.028C322.88 477.836 322.812 477.57 322.73 477.228C322.652 476.886 322.561 476.467 322.456 475.97C322.415 476.211 322.361 476.474 322.292 476.756C322.229 477.034 322.165 477.292 322.101 477.529C322.042 477.766 321.996 477.943 321.964 478.062ZM338.098 481.487C338.098 482.375 337.75 483.063 337.053 483.551C336.36 484.039 335.382 484.282 334.12 484.282C331.773 484.282 330.413 483.467 330.039 481.835L331.303 481.582C331.449 482.161 331.759 482.587 332.233 482.861C332.707 483.129 333.352 483.264 334.168 483.264C335.011 483.264 335.66 483.12 336.116 482.833C336.576 482.542 336.806 482.115 336.806 481.555C336.806 481.24 336.734 480.985 336.588 480.789C336.446 480.593 336.246 480.432 335.986 480.304C335.726 480.176 335.416 480.069 335.056 479.983C334.696 479.896 334.298 479.803 333.86 479.702C333.354 479.588 332.93 479.477 332.589 479.367C332.251 479.258 331.973 479.144 331.755 479.026C331.536 478.903 331.349 478.773 331.194 478.636C330.966 478.426 330.791 478.183 330.668 477.905C330.549 477.627 330.49 477.308 330.49 476.947C330.49 476.123 330.804 475.487 331.433 475.04C332.067 474.594 332.971 474.37 334.147 474.37C335.241 474.37 336.077 474.539 336.656 474.876C337.235 475.209 337.64 475.779 337.873 476.585L336.588 476.811C336.446 476.3 336.178 475.931 335.781 475.703C335.385 475.471 334.835 475.355 334.134 475.355C333.363 475.355 332.776 475.482 332.37 475.738C331.964 475.993 331.762 476.373 331.762 476.879C331.762 477.175 331.839 477.421 331.994 477.617C332.153 477.809 332.381 477.971 332.678 478.103C332.956 478.235 333.546 478.401 334.448 478.602C334.817 478.688 335.182 478.78 335.542 478.875C335.902 478.966 336.241 479.083 336.56 479.224C336.747 479.301 336.925 479.397 337.094 479.511C337.267 479.62 337.417 479.748 337.545 479.894C337.718 480.085 337.852 480.311 337.948 480.571C338.048 480.83 338.098 481.136 338.098 481.487Z" fill="white" fill-opacity="0.9"/>
<path d="M173.642 523.419C173.642 520.661 175.878 518.425 178.636 518.425C181.393 518.425 183.629 520.661 183.629 523.419C183.629 526.177 181.393 528.412 178.636 528.412C175.878 528.412 173.642 526.177 173.642 523.419Z" fill="white"/>
<path d="M191.626 523.419C191.626 520.661 193.862 518.425 196.619 518.425C199.377 518.425 201.613 520.661 201.613 523.419C201.613 526.177 199.377 528.412 196.619 528.412C193.862 528.412 191.626 526.177 191.626 523.419Z" fill="white"/>
<path d="M209.61 523.419C209.61 520.661 211.845 518.425 214.603 518.425C217.361 518.425 219.597 520.661 219.597 523.419C219.597 526.177 217.361 528.412 214.603 528.412C211.845 528.412 209.61 526.177 209.61 523.419Z" fill="white"/>
<path d="M156.627 322.956C156.627 321.852 157.522 320.957 158.627 320.957H234.612C235.716 320.957 236.611 321.852 236.611 322.956C236.611 324.06 235.716 324.956 234.612 324.956H158.627C157.523 324.956 156.627 324.06 156.627 322.956Z" fill="white"/>
<path d="M108.872 365.463C108.872 368.698 107.669 371.174 105.263 372.893C102.872 374.596 99.3564 375.448 94.7158 375.448C86.3564 375.448 81.4892 372.424 80.1142 366.377L86.7939 365.276C87.247 367.026 88.1299 368.299 89.4424 369.096C90.7549 369.877 92.5752 370.268 94.9033 370.268C97.3252 370.268 99.1377 369.901 100.341 369.167C101.544 368.432 102.145 367.331 102.145 365.862C102.145 364.924 101.872 364.151 101.325 363.542C100.778 362.932 99.997 362.424 98.9814 362.018C98.4814 361.815 97.747 361.596 96.7783 361.362C95.8095 361.112 94.6064 360.838 93.1689 360.542C91.5127 360.151 90.2158 359.823 89.2783 359.557C88.3408 359.276 87.5908 359.01 87.0283 358.76C86.4658 358.495 85.9189 358.206 85.3877 357.893C84.2158 357.19 83.3017 356.252 82.6455 355.081C81.9892 353.909 81.6611 352.448 81.6611 350.698C81.6611 347.713 82.7783 345.432 85.0127 343.854C87.2627 342.26 90.5283 341.463 94.8095 341.463C98.9033 341.463 101.974 342.104 104.02 343.385C106.083 344.667 107.411 346.784 108.005 349.737L101.302 350.651C100.958 349.229 100.255 348.159 99.1924 347.44C98.1455 346.721 96.6377 346.362 94.6689 346.362C92.5752 346.362 91.0049 346.69 89.958 347.346C88.9111 348.002 88.3877 348.987 88.3877 350.299C88.3877 351.159 88.6064 351.862 89.0439 352.409C89.497 352.956 90.1611 353.424 91.0361 353.815C91.8642 354.19 93.6377 354.667 96.3564 355.245C97.9345 355.588 99.2939 355.917 100.435 356.229C101.575 356.526 102.489 356.815 103.177 357.096C103.864 357.393 104.474 357.706 105.005 358.034C105.552 358.362 106.02 358.713 106.411 359.088C107.208 359.854 107.817 360.768 108.239 361.831C108.661 362.877 108.872 364.088 108.872 365.463ZM123.469 375.448C119.625 375.448 116.656 374.307 114.563 372.026C112.469 369.729 111.422 366.534 111.422 362.44C111.422 358.252 112.477 354.995 114.586 352.667C116.695 350.323 119.688 349.151 123.563 349.151C126.547 349.151 129.016 349.901 130.969 351.401C132.922 352.901 134.149 354.971 134.649 357.612L128.016 357.94C127.828 356.643 127.36 355.612 126.61 354.846C125.86 354.065 124.797 353.674 123.422 353.674C121.719 353.674 120.445 354.385 119.602 355.807C118.758 357.213 118.336 359.338 118.336 362.182C118.336 365.104 118.766 367.299 119.625 368.768C120.5 370.221 121.797 370.948 123.516 370.948C124.766 370.948 125.813 370.557 126.656 369.776C127.5 368.979 128.024 367.799 128.227 366.237L134.836 366.542C134.602 368.323 133.969 369.885 132.938 371.229C131.922 372.557 130.602 373.596 128.977 374.346C127.352 375.081 125.516 375.448 123.469 375.448ZM162.511 362.276C162.511 366.385 161.37 369.612 159.089 371.956C156.808 374.284 153.652 375.448 149.62 375.448C145.667 375.448 142.566 374.276 140.316 371.932C138.066 369.588 136.941 366.37 136.941 362.276C136.941 358.198 138.066 354.995 140.316 352.667C142.566 350.323 145.714 349.151 149.761 349.151C153.902 349.151 157.058 350.284 159.23 352.549C161.417 354.799 162.511 358.042 162.511 362.276ZM155.62 362.276C155.62 359.26 155.128 357.073 154.144 355.713C153.16 354.354 151.73 353.674 149.855 353.674C147.855 353.674 146.355 354.393 145.355 355.831C144.355 357.252 143.855 359.401 143.855 362.276C143.855 365.104 144.339 367.26 145.308 368.745C146.292 370.213 147.706 370.948 149.55 370.948C151.581 370.948 153.097 370.229 154.097 368.792C155.113 367.338 155.62 365.167 155.62 362.276ZM173.147 362.534V374.979H166.561V355.573C166.561 354.182 166.538 353.026 166.491 352.104C166.46 351.167 166.42 350.338 166.374 349.62H172.655C172.686 349.76 172.717 350.073 172.749 350.557C172.78 351.042 172.811 351.588 172.842 352.198C172.874 352.792 172.897 353.354 172.913 353.885C172.944 354.417 172.96 354.799 172.96 355.034H173.053C173.678 353.284 174.249 352.026 174.764 351.26C175.264 350.526 175.858 349.987 176.545 349.643C177.233 349.299 178.092 349.127 179.124 349.127C179.967 349.127 180.647 349.245 181.163 349.479V354.987C180.116 354.752 179.178 354.635 178.35 354.635C176.71 354.635 175.428 355.299 174.506 356.627C173.6 357.956 173.147 359.924 173.147 362.534ZM189.502 363.565C189.502 366.034 189.955 367.901 190.861 369.167C191.783 370.417 193.088 371.042 194.775 371.042C195.931 371.042 196.877 370.792 197.611 370.292C198.361 369.776 198.885 369.018 199.181 368.018L205.392 368.557C203.595 373.151 199.947 375.448 194.447 375.448C190.635 375.448 187.705 374.323 185.658 372.073C183.611 369.807 182.588 366.51 182.588 362.182C182.588 357.995 183.627 354.776 185.705 352.526C187.783 350.276 190.728 349.151 194.541 349.151C198.181 349.151 200.963 350.362 202.885 352.784C204.806 355.19 205.767 358.721 205.767 363.377V363.565H189.502ZM199.392 359.44C199.267 357.393 198.775 355.862 197.916 354.846C197.056 353.815 195.9 353.299 194.447 353.299C192.9 353.299 191.705 353.838 190.861 354.917C190.033 355.995 189.595 357.502 189.549 359.44H199.392Z" fill="white"/>
<path d="M254.449 369.635V374.979H229.816V341.956H236.73V369.635H254.449ZM264.687 340.198V345.049H258.101V340.198H264.687ZM264.687 349.62V374.979H258.101V349.62H264.687ZM293.393 349.62L284.041 374.979H276.166L267.096 349.62H274.057L278.487 363.799C278.612 364.19 278.807 364.877 279.073 365.862C279.354 366.831 279.713 368.096 280.151 369.659C280.213 369.44 280.338 369.002 280.526 368.346C280.729 367.69 280.948 366.971 281.182 366.19C281.416 365.409 281.619 364.752 281.791 364.221L286.502 349.62H293.393ZM301.216 363.565C301.216 366.034 301.669 367.901 302.576 369.167C303.498 370.417 304.802 371.042 306.49 371.042C307.646 371.042 308.591 370.792 309.326 370.292C310.076 369.776 310.599 369.018 310.896 368.018L317.107 368.557C315.31 373.151 311.662 375.448 306.162 375.448C302.349 375.448 299.419 374.323 297.373 372.073C295.326 369.807 294.302 366.51 294.302 362.182C294.302 357.995 295.341 354.776 297.419 352.526C299.498 350.276 302.443 349.151 306.255 349.151C309.896 349.151 312.677 350.362 314.599 352.784C316.521 355.19 317.482 358.721 317.482 363.377V363.565H301.216ZM311.107 359.44C310.982 357.393 310.49 355.862 309.63 354.846C308.771 353.815 307.615 353.299 306.162 353.299C304.615 353.299 303.419 353.838 302.576 354.917C301.748 355.995 301.31 357.502 301.263 359.44H311.107Z" fill="#FFDB4D"/>
<rect width="47.9973" height="1.99051" transform="translate(103.836 407.951)" fill="white" fill-opacity="0.6"/>
<path d="M178.856 404.509C178.856 405.548 178.626 406.451 178.165 407.216C177.704 407.982 177.047 408.576 176.196 408.998C175.352 409.412 174.344 409.619 173.172 409.619H168.321V416.052H166.083V399.541H173.032C174.883 399.541 176.317 399.974 177.333 400.841C178.348 401.709 178.856 402.931 178.856 404.509ZM176.606 404.533C176.606 402.4 175.325 401.334 172.762 401.334H168.321V407.849H172.856C174.106 407.849 175.044 407.576 175.669 407.029C176.294 406.474 176.606 405.642 176.606 404.533ZM191.529 409.197V416.052H189.29V399.541H197.06C198.919 399.541 200.353 399.959 201.361 400.794C202.376 401.623 202.884 402.779 202.884 404.263C202.884 405.49 202.525 406.521 201.806 407.357C201.095 408.193 200.111 408.72 198.853 408.939L203.54 416.052H200.962L196.673 409.197H191.529ZM200.634 404.287C200.634 403.326 200.306 402.595 199.65 402.095C199.001 401.587 198.064 401.334 196.837 401.334H191.529V407.427H196.931C198.111 407.427 199.021 407.154 199.662 406.607C200.31 406.052 200.634 405.279 200.634 404.287ZM229.385 407.72C229.385 409.486 229.049 411.009 228.377 412.291C227.713 413.572 226.768 414.56 225.541 415.255C224.315 415.943 222.862 416.287 221.182 416.287C219.494 416.287 218.037 415.943 216.811 415.255C215.592 414.568 214.651 413.584 213.987 412.302C213.33 411.021 213.002 409.494 213.002 407.72C213.002 405.955 213.326 404.447 213.975 403.197C214.631 401.939 215.569 400.974 216.787 400.302C218.014 399.63 219.487 399.294 221.205 399.294C222.893 399.294 224.346 399.627 225.565 400.291C226.791 400.955 227.733 401.916 228.389 403.173C229.053 404.423 229.385 405.939 229.385 407.72ZM227.1 407.72C227.1 405.666 226.584 404.052 225.553 402.88C224.53 401.709 223.08 401.123 221.205 401.123C219.315 401.123 217.854 401.701 216.822 402.857C215.791 404.013 215.276 405.634 215.276 407.72C215.276 409.095 215.51 410.291 215.979 411.306C216.447 412.314 217.123 413.095 218.006 413.65C218.889 414.197 219.947 414.47 221.182 414.47C223.088 414.47 224.549 413.884 225.565 412.712C226.588 411.533 227.1 409.869 227.1 407.72Z" fill="white"/>
<rect width="47.9973" height="1.99051" transform="translate(241.423 407.951)" fill="white" fill-opacity="0.6"/>
<path d="M156.627 442.941C156.627 441.837 157.522 440.942 158.627 440.942H234.612C235.716 440.942 236.611 441.837 236.611 442.941C236.611 444.045 235.716 444.94 234.612 444.94H158.627C157.523 444.94 156.627 444.045 156.627 442.941Z" fill="white"/>
</g>
<defs>
<linearGradient id="paint0_linear_20_1048" x1="196.628" y1="0" x2="196.628" y2="3.99833" gradientUnits="userSpaceOnUse">
<stop stop-opacity="0"/>
<stop offset="0.5" stop-color="#FFDB4D"/>
<stop offset="1" stop-opacity="0"/>
</linearGradient>
<clipPath id="clip0_20_1048">
<rect width="390" height="851" rx="16" fill="white"/>
</clipPath>
</defs>
</svg>
